<svg width="25" height="24" viewBox="0 0 25 24" fill="none" xmlns="http://www.w3.org/2000/svg">
<path d="M20.5307 9.53062L13.0307 17.0306C12.961 17.1003 12.8783 17.1557 12.7873 17.1934C12.6962 17.2312 12.5986 17.2506 12.5001 17.2506C12.4015 17.2506 12.3039 17.2312 12.2128 17.1934C12.1218 17.1557 12.0391 17.1003 11.9694 17.0306L4.46943 9.53062C4.3287 9.38988 4.24963 9.19901 4.24963 8.99999C4.24963 8.80097 4.3287 8.61009 4.46943 8.46936C4.61016 8.32863 4.80103 8.24957 5.00005 8.24957C5.19907 8.24957 5.38995 8.32863 5.53068 8.46936L12.5001 15.4397L19.4694 8.46936C19.5391 8.39968 19.6218 8.34441 19.7129 8.30669C19.8039 8.26898 19.9015 8.24957 20.0001 8.24957C20.0986 8.24957 20.1962 8.26898 20.2872 8.30669C20.3783 8.34441 20.461 8.39968 20.5307 8.46936C20.6004 8.53905 20.6556 8.62177 20.6933 8.71282C20.7311 8.80386 20.7505 8.90144 20.7505 8.99999C20.7505 9.09854 20.7311 9.19612 20.6933 9.28716C20.6556 9.37821 20.6004 9.46093 20.5307 9.53062Z" fill="#100F0F"/>
</svg>
