<svg xmlns="http://www.w3.org/2000/svg" width="24" height="24" fill="none"><path fill="#100F0F" d="M9.75 13.125a1.125 1.125 0 1 1-2.25 0 1.125 1.125 0 0 1 2.25 0ZM15.375 12a1.125 1.125 0 1 0 0 2.25 1.125 1.125 0 0 0 0-2.25Zm6.98 6.084-6.282 2.786a1.517 1.517 0 0 1-2.035-.854l-.76-2.062c-.42.028-.846.043-1.278.043-.432 0-.858-.014-1.278-.043l-.76 2.063a1.516 1.516 0 0 1-2.035.853l-6.282-2.786a1.493 1.493 0 0 1-.85-1.735L3.564 5.437A1.507 1.507 0 0 1 4.78 4.326l3.38-.556a1.52 1.52 0 0 1 1.713 1.113l.305 1.204A18.735 18.735 0 0 1 12 6c.618 0 1.224.029 1.819.087l.305-1.204a1.52 1.52 0 0 1 1.712-1.113l3.383.556a1.506 1.506 0 0 1 1.218 1.111l2.769 10.911a1.493 1.493 0 0 1-.851 1.736Zm-.605-1.37L18.982 5.812h-.008l-3.38-.562a.016.016 0 0 0-.016 0l-.266 1.044c.469.088.938.193 1.39.321a.75.75 0 0 1-.202 1.477.758.758 0 0 1-.203-.029c-1.4-.38-2.846-.57-4.297-.563a16.148 16.148 0 0 0-4.298.562.75.75 0 1 1-.404-1.443c.451-.128.916-.233 1.389-.32L8.422 5.25H8.41l-3.384.556h-.008L2.25 16.718 8.531 19.5a.022.022 0 0 0 .02 0l.636-1.714a16.22 16.22 0 0 1-1.888-.405.75.75 0 0 1 .403-1.444c1.401.38 2.847.57 4.298.563a16.112 16.112 0 0 0 4.297-.563.75.75 0 0 1 .405 1.445c-.62.172-1.252.307-1.89.404l.633 1.714a.021.021 0 0 0 .02 0l6.285-2.786Z"/></svg>