<svg xmlns="http://www.w3.org/2000/svg" width="24" height="24" fill="none"><path fill="#100F0F" d="M19.5 3h-15A1.5 1.5 0 0 0 3 4.5V18a1.5 1.5 0 0 0 1.5 1.5H6v3a.75.75 0 0 0 1.23.577l4.292-3.577h3.956a1.5 1.5 0 0 0 .961-.348l4.021-3.351a1.494 1.494 0 0 0 .54-1.153V4.5A1.5 1.5 0 0 0 19.5 3Zm0 11.648L15.478 18h-3.956a1.5 1.5 0 0 0-.961.348L7.5 20.898V18.75a.75.75 0 0 0-.75-.75H4.5V4.5h15v10.148ZM15 12.75v-4.5a.75.75 0 1 1 1.5 0v4.5a.75.75 0 1 1-1.5 0Zm-4.5 0v-4.5a.75.75 0 1 1 1.5 0v4.5a.75.75 0 1 1-1.5 0Z"/></svg>