<svg xmlns="http://www.w3.org/2000/svg" width="24" height="24" fill="none"><path fill="#100F0F" d="M23.193 6.463A.75.75 0 0 0 22.5 6h-2.853a4.562 4.562 0 0 0-3.888-2.25 4.398 4.398 0 0 0-3.164 1.284A4.492 4.492 0 0 0 11.25 8.25v.57c-3.774-.995-6.862-4.065-6.894-4.098a.75.75 0 0 0-1.28.461c-.404 4.48.897 7.479 2.062 9.205a10.4 10.4 0 0 0 2.052 2.269c-1.428 1.643-3.676 2.506-3.7 2.516a.751.751 0 0 0-.362 1.118c.07.105.352.474 1.04.818.849.425 1.97.641 3.332.641 6.625 0 12.161-5.102 12.727-11.666L23.03 7.28a.75.75 0 0 0 .162-.818ZM18.974 9.22a.75.75 0 0 0-.217.482C18.375 15.617 13.432 20.25 7.5 20.25c-.99 0-1.688-.131-2.177-.289 1.08-.586 2.584-1.593 3.551-3.045a.75.75 0 0 0-.249-1.065c-.044-.025-4.117-2.47-4.125-9 1.5 1.219 4.242 3.11 7.375 3.637a.75.75 0 0 0 .875-.738v-1.5a3 3 0 0 1 .9-2.149 2.9 2.9 0 0 1 2.09-.851c1.187.015 2.297.739 2.76 1.801a.75.75 0 0 0 .688.449h1.5l-1.714 1.72Z"/></svg>